<svg width="187" height="50" viewBox="0 0 187 50" fill="none" xmlns="http://www.w3.org/2000/svg">
<g clip-path="url(#clip0_1_1026)">
<path d="M18.1324 16.2942L17.7245 18.4789H11.7641L8.31328 37.7404H5.45852L8.90932 18.4789H2.94885L3.35667 16.2942H18.1324ZM36.077 20.8789L33.034 37.7404H30.1793L30.6185 35.2789C29.9283 36.1404 29.0499 36.807 27.9833 37.2789C26.9167 37.7507 25.8082 37.9865 24.658 37.9865C22.8594 37.9865 21.4163 37.5147 20.3288 36.5712C19.2622 35.607 18.7289 34.2327 18.7289 32.4481C18.7289 31.9969 18.7812 31.4327 18.8858 30.7558L20.6739 20.8789H23.4973L21.8033 30.3865C21.7196 30.8173 21.6778 31.2685 21.6778 31.7404C21.6778 32.9916 22.0229 33.9454 22.713 34.6019C23.4241 35.2377 24.407 35.5558 25.6619 35.5558C27.1677 35.5558 28.4433 35.0942 29.4891 34.1712C30.5557 33.2481 31.2354 31.9046 31.5282 30.1404V30.2327L33.2223 20.8789H36.077ZM43.1872 24.0789C43.8773 22.9712 44.7452 22.1096 45.791 21.4942C46.8368 20.8789 48.0288 20.5712 49.3673 20.5712L48.834 23.4635H48.081C46.5961 23.4635 45.3518 23.8532 44.3479 24.6327C43.3649 25.4123 42.7061 26.725 42.3715 28.5712L40.7089 37.7404H37.8541L40.8971 20.8789H43.7519L43.1872 24.0789ZM54.89 24.0173C55.6637 23.0122 56.6676 22.1917 57.9016 21.5558C59.1356 20.9199 60.474 20.6019 61.9171 20.6019C63.9667 20.6019 65.6083 21.2071 66.8423 22.4173C68.0971 23.6276 68.7246 25.2685 68.7246 27.3404C68.7246 27.9353 68.6618 28.5712 68.5363 29.2481C68.2226 30.9507 67.5847 32.4685 66.6227 33.8019C65.6816 35.1353 64.5209 36.1712 63.1406 36.9096C61.7811 37.6481 60.338 38.0173 58.8114 38.0173C57.3264 38.0173 56.0821 37.6993 55.0782 37.0635C54.0744 36.4277 53.3737 35.6173 52.9764 34.6327L52.4117 37.7404H49.5569L53.6665 14.9712H56.5213L54.89 24.0173ZM65.6189 29.2481C65.7024 28.8173 65.7443 28.3454 65.7443 27.8327C65.7443 26.3353 65.2946 25.1661 64.3954 24.325C63.4962 23.4635 62.3354 23.0327 60.9132 23.0327C59.8674 23.0327 58.8533 23.2891 57.8702 23.8019C56.8872 24.2942 56.0402 25.0224 55.3292 25.9865C54.639 26.9301 54.179 28.0277 53.9489 29.2789C53.8653 29.7096 53.8234 30.1815 53.8234 30.6942C53.8234 32.1916 54.2731 33.3815 55.1723 34.2635C56.0926 35.125 57.2534 35.5558 58.6545 35.5558C59.7211 35.5558 60.7355 35.3096 61.6975 34.8173C62.6805 34.3046 63.517 33.5762 64.2072 32.6327C64.9182 31.6685 65.3887 30.5404 65.6189 29.2481ZM78.3172 38.0173C76.8741 38.0173 75.5985 37.7301 74.49 37.1558C73.4025 36.5608 72.5555 35.7404 71.9489 34.6942C71.3423 33.6277 71.0392 32.3969 71.0392 31.0019C71.0392 29.0942 71.4889 27.3507 72.3881 25.7712C73.2873 24.1712 74.5213 22.9096 76.0899 21.9865C77.6793 21.0635 79.4466 20.6019 81.3916 20.6019C82.8346 20.6019 84.1103 20.8994 85.2188 21.4942C86.3482 22.0686 87.216 22.8891 87.8226 23.9558C88.45 25.0019 88.7637 26.2327 88.7637 27.6481C88.7637 29.5558 88.3037 31.2993 87.3834 32.8789C86.4631 34.4584 85.2083 35.7096 83.6189 36.6327C82.0295 37.5558 80.2622 38.0173 78.3172 38.0173ZM78.6623 35.6481C80.0218 35.6481 81.2452 35.2892 82.3327 34.5712C83.4201 33.8327 84.2671 32.8685 84.8737 31.6789C85.5011 30.4685 85.8148 29.1762 85.8148 27.8019C85.8148 26.243 85.3548 25.0531 84.4345 24.2327C83.5142 23.3917 82.3641 22.9712 80.9837 22.9712C79.6242 22.9712 78.4113 23.3404 77.3447 24.0789C76.2781 24.7969 75.4519 25.7608 74.8664 26.9712C74.2809 28.1815 73.988 29.4839 73.988 30.8789C73.988 32.3969 74.4272 33.5762 75.3056 34.4173C76.184 35.2377 77.3028 35.6481 78.6623 35.6481ZM101.521 16.2942C104.637 16.2942 107.052 17.0327 108.767 18.5096C110.503 19.9865 111.371 22.0378 111.371 24.6635C111.371 25.4839 111.298 26.2839 111.152 27.0635C110.754 29.2584 109.939 31.1661 108.705 32.7865C107.492 34.3865 105.933 35.6173 104.03 36.4789C102.148 37.32 100.015 37.7404 97.6307 37.7404H90.8232L94.7132 16.2942H101.521ZM98.0385 35.5865C100.841 35.5865 103.121 34.8377 104.877 33.3404C106.634 31.8224 107.753 29.7301 108.234 27.0635C108.36 26.325 108.422 25.6277 108.422 24.9712C108.422 22.9404 107.805 21.3712 106.571 20.2635C105.337 19.1353 103.518 18.5712 101.113 18.5712H97.1601L94.0857 35.5865H98.0385ZM120.564 38.0173C119.121 38.0173 117.845 37.7301 116.737 37.1558C115.649 36.5608 114.802 35.7404 114.195 34.6942C113.589 33.6277 113.286 32.3969 113.286 31.0019C113.286 29.0942 113.735 27.3507 114.635 25.7712C115.534 24.1712 116.768 22.9096 118.336 21.9865C119.926 21.0635 121.693 20.6019 123.638 20.6019C125.081 20.6019 126.357 20.8994 127.465 21.4942C128.595 22.0686 129.463 22.8891 130.069 23.9558C130.697 25.0019 131.01 26.2327 131.01 27.6481C131.01 29.5558 130.55 31.2993 129.63 32.8789C128.71 34.4584 127.455 35.7096 125.865 36.6327C124.276 37.5558 122.509 38.0173 120.564 38.0173ZM120.909 35.6481C122.268 35.6481 123.492 35.2892 124.579 34.5712C125.667 33.8327 126.514 32.8685 127.12 31.6789C127.748 30.4685 128.061 29.1762 128.061 27.8019C128.061 26.243 127.601 25.0531 126.681 24.2327C125.761 23.3917 124.611 22.9712 123.23 22.9712C121.871 22.9712 120.658 23.3404 119.591 24.0789C118.525 24.7969 117.698 25.7608 117.113 26.9712C116.527 28.1815 116.235 29.4839 116.235 30.8789C116.235 32.3969 116.674 33.5762 117.552 34.4173C118.431 35.2377 119.549 35.6481 120.909 35.6481ZM133.509 29.2789C133.823 27.5353 134.45 26.0173 135.391 24.725C136.353 23.4122 137.535 22.3968 138.936 21.6789C140.337 20.9609 141.854 20.6019 143.485 20.6019C145.597 20.6019 147.239 21.1045 148.41 22.1096C149.602 23.1147 150.261 24.5096 150.386 26.2942H147.312C147.207 25.2685 146.779 24.4584 146.026 23.8635C145.294 23.2686 144.301 22.9712 143.046 22.9712C141.414 22.9712 139.992 23.525 138.779 24.6327C137.587 25.72 136.813 27.2685 136.458 29.2789C136.353 29.9558 136.301 30.52 136.301 30.9712C136.301 32.4685 136.709 33.6277 137.524 34.4481C138.34 35.2481 139.427 35.6481 140.787 35.6481C142.042 35.6481 143.129 35.3608 144.05 34.7865C144.991 34.2123 145.712 33.3916 146.214 32.325H149.288C148.536 34.0481 147.375 35.4327 145.806 36.4789C144.238 37.5046 142.418 38.0173 140.348 38.0173C138.194 38.0173 136.479 37.4123 135.203 36.2019C133.948 34.9916 133.321 33.3404 133.321 31.2481C133.321 30.6123 133.383 29.9558 133.509 29.2789Z" fill="white"/>
<path d="M0.53125 57.1449L8.00994 12.2727H14.3807L11.1847 31.4276C10.9148 33.0469 11.0355 34.4744 11.5469 35.7102C12.0582 36.9318 12.8892 37.8906 14.0398 38.5866C15.1903 39.2827 16.6108 39.6307 18.3011 39.6307C19.9915 39.6307 21.5256 39.2827 22.9034 38.5866C24.2955 37.8906 25.4389 36.9318 26.3338 35.7102C27.2429 34.4744 27.8253 33.0469 28.081 31.4276L31.2983 12.2727H37.669L32.2145 45H25.9503L26.7812 40.206H26.5256C25.4318 41.8111 24.0682 43.0469 22.4347 43.9134C20.8011 44.7798 19.0966 45.2131 17.321 45.2131C15.6023 45.2131 14.0682 44.7798 12.7188 43.9134C11.3835 43.0469 10.446 41.8111 9.90625 40.206H9.65057L6.79545 57.1449H0.53125ZM55.5881 45H41.2699L48.5142 1.36364H62.8963C67.1861 1.36364 70.7301 2.25852 73.5284 4.04829C76.3267 5.82386 78.2869 8.36648 79.4091 11.6761C80.5313 14.9716 80.7088 18.9134 79.9418 23.5014C79.2031 27.9901 77.7543 31.8395 75.5952 35.0497C73.4503 38.2457 70.6875 40.7031 67.3068 42.4219C63.9261 44.1406 60.0199 45 55.5881 45ZM48.8338 39.2472H55.8651C59.1889 39.2472 62.0653 38.6009 64.4943 37.3082C66.9375 36.0156 68.919 34.1406 70.4389 31.6832C71.9588 29.2259 73.0099 26.2358 73.5923 22.7131C74.1605 19.3608 74.1108 16.527 73.4432 14.2116C72.7756 11.8821 71.483 10.1207 69.5653 8.92756C67.6477 7.72017 65.098 7.11648 61.9162 7.11648H54.1392L48.8338 39.2472ZM97.994 45.6605C94.8832 45.6605 92.2837 44.9503 90.1957 43.5298C88.1076 42.0952 86.6374 40.0923 85.7852 37.5213C84.9471 34.9361 84.805 31.9318 85.359 28.5085C85.8988 25.1562 86.9854 22.2301 88.619 19.7301C90.2667 17.2301 92.3263 15.2912 94.7979 13.9134C97.2837 12.5355 100.047 11.8466 103.086 11.8466C106.197 11.8466 108.789 12.5639 110.863 13.9986C112.951 15.4332 114.422 17.4432 115.274 20.0284C116.126 22.6136 116.275 25.625 115.721 29.0625C115.181 32.3864 114.081 35.2983 112.419 37.7983C110.771 40.2841 108.711 42.2159 106.24 43.5938C103.768 44.9716 101.02 45.6605 97.994 45.6605ZM98.3562 40.3125C100.402 40.3125 102.184 39.7727 103.704 38.6932C105.238 37.6136 106.488 36.179 107.454 34.3892C108.42 32.5994 109.081 30.6392 109.436 28.5085C109.762 26.4489 109.755 24.5668 109.414 22.8622C109.088 21.1435 108.377 19.7656 107.284 18.7287C106.19 17.6918 104.67 17.1733 102.724 17.1733C100.679 17.1733 98.8817 17.7202 97.3335 18.8139C95.7994 19.8935 94.5494 21.3352 93.5835 23.1392C92.6317 24.9432 91.9854 26.9105 91.6445 29.0412C91.3178 31.0866 91.3178 32.9688 91.6445 34.6875C91.9712 36.392 92.6815 37.7557 93.7752 38.7784C94.869 39.8011 96.396 40.3125 98.3562 40.3125ZM133.912 45.6605C130.73 45.6605 128.124 44.9432 126.092 43.5085C124.061 42.0597 122.648 40.0639 121.852 37.5213C121.057 34.9787 120.929 32.0668 121.469 28.7855C122.009 25.4616 123.109 22.5284 124.771 19.9858C126.447 17.429 128.543 15.4332 131.057 13.9986C133.585 12.5639 136.391 11.8466 139.473 11.8466C141.959 11.8466 144.097 12.3082 145.886 13.2315C147.676 14.1406 149.033 15.419 149.956 17.0668C150.879 18.7145 151.277 20.6392 151.149 22.8409H144.949C144.849 21.3068 144.281 19.9858 143.244 18.8778C142.207 17.7699 140.68 17.2159 138.663 17.2159C136.888 17.2159 135.254 17.6847 133.763 18.6222C132.271 19.5455 131.014 20.8665 129.991 22.5852C128.969 24.2898 128.273 26.3068 127.903 28.6364C127.506 31.0227 127.527 33.0824 127.967 34.8153C128.408 36.5483 129.217 37.8906 130.396 38.8423C131.575 39.794 133.06 40.2699 134.849 40.2699C136.071 40.2699 137.207 40.0497 138.259 39.6094C139.324 39.1548 140.261 38.5085 141.071 37.6705C141.895 36.8324 142.534 35.8239 142.989 34.6449H149.21C148.599 36.7614 147.577 38.6506 146.142 40.3125C144.722 41.9744 142.974 43.2812 140.901 44.233C138.827 45.1847 136.497 45.6605 133.912 45.6605ZM164.445 12.2727L169.558 25.0142L178.955 12.2727H185.922L172.989 28.6364L180.553 45H173.585L168.259 32.7699L158.862 45H151.874L164.786 28.6364L157.456 12.2727H164.445Z" fill="#2B579A"/>
</g>
<defs>
<clipPath id="clip0_1_1026">
<rect width="187" height="50" fill="white"/>
</clipPath>
</defs>
</svg>
